<svg xmlns="http://www.w3.org/2000/svg" xmlns:xlink="http://www.w3.org/1999/xlink">

<symbol id="github" fill-rule="evenodd" clip-rule="evenodd" stroke-linejoin="round" stroke-miterlimit="1.414"><path d="M8 0C3.58 0 0 3.582 0 8c0 3.535 2.292 6.533 5.47 7.59.4.075.547-.172.547-.385 0-.19-.007-.693-.01-1.36-2.226.483-2.695-1.073-2.695-1.073-.364-.924-.89-1.17-.89-1.17-.725-.496.056-.486.056-.486.803.056 1.225.824 1.225.824.714 1.223 1.873.87 2.33.665.072-.517.278-.87.507-1.07-1.777-.2-3.644-.888-3.644-3.953 0-.873.31-1.587.823-2.147-.09-.202-.36-1.015.07-2.117 0 0 .67-.215 2.2.82.64-.178 1.32-.266 2-.27.68.004 1.36.092 2 .27 1.52-1.035 2.19-.82 2.19-.82.43 1.102.16 1.915.08 2.117.51.56.82 1.274.82 2.147 0 3.073-1.87 3.75-3.65 3.947.28.24.54.73.54 1.48 0 1.07-.01 1.93-.01 2.19 0 .21.14.46.55.38C13.71 14.53 16 11.53 16 8c0-4.418-3.582-8-8-8"/></symbol>

<symbol id="twitter" fill-rule="evenodd" clip-rule="evenodd" stroke-linejoin="round" stroke-miterlimit="1.414"><path d="M16 3.038c-.59.26-1.22.437-1.885.517.677-.407 1.198-1.05 1.443-1.816-.634.37-1.337.64-2.085.79-.598-.64-1.45-1.04-2.396-1.04-1.812 0-3.282 1.47-3.282 3.28 0 .26.03.51.085.75-2.728-.13-5.147-1.44-6.766-3.42C.83 2.58.67 3.14.67 3.75c0 1.14.58 2.143 1.46 2.732-.538-.017-1.045-.165-1.487-.41v.04c0 1.59 1.13 2.918 2.633 3.22-.276.074-.566.114-.865.114-.21 0-.41-.02-.61-.058.42 1.304 1.63 2.253 3.07 2.28-1.12.88-2.54 1.404-4.07 1.404-.26 0-.52-.015-.78-.045 1.46.93 3.18 1.474 5.04 1.474 6.04 0 9.34-5 9.34-9.33 0-.14 0-.28-.01-.42.64-.46 1.2-1.04 1.64-1.7z" fill-rule="nonzero"/></symbol>

<symbol id="spotify" fill-rule="evenodd" clip-rule="evenodd" stroke-linejoin="round" stroke-miterlimit="1.414"><path d="M83.996.277C37.747.277.253 37.77.253 84.019c0 46.251 37.494 83.741 83.743 83.741 46.254 0 83.744-37.49 83.744-83.741 0-46.246-37.49-83.738-83.745-83.738l.001-.004zm38.404 120.78a5.217 5.217 0 0 1-7.18 1.73c-19.662-12.01-44.414-14.73-73.564-8.07a5.222 5.222 0 0 1-6.249-3.93 5.213 5.213 0 0 1 3.926-6.25c31.9-7.291 59.263-4.15 81.337 9.34 2.46 1.51 3.24 4.72 1.73 7.18zm10.25-22.805c-1.89 3.075-5.91 4.045-8.98 2.155-22.51-13.839-56.823-17.846-83.448-9.764-3.453 1.043-7.1-.903-8.148-4.35a6.538 6.538 0 0 1 4.354-8.143c30.413-9.228 68.222-4.758 94.072 11.127 3.07 1.89 4.04 5.91 2.15 8.976v-.001zm.88-23.744c-26.99-16.031-71.52-17.505-97.289-9.684-4.138 1.255-8.514-1.081-9.768-5.219a7.835 7.835 0 0 1 5.221-9.771c29.581-8.98 78.756-7.245 109.83 11.202a7.823 7.823 0 0 1 2.74 10.733c-2.2 3.722-7.02 4.949-10.73 2.739z"/></symbol>

<symbol id="resume" fill-rule="evenodd" clip-rule="evenodd" stroke-linejoin="round" stroke-miterlimit="1.414">
    <path d="M101 253.967h122.418c5.522 0 10-4.477 10-10v-24.87c0-21.267-6.658-40.821-18.747-55.059-4.811-5.666-10.407-10.382-16.61-14.077 17.358-11.389 28.852-31.002 28.852-53.257 0-35.126-28.59-63.703-63.732-63.703-35.118 0-63.688 28.577-63.688 63.703 0 21.865 11.081 41.187 27.919 52.659a66.13 66.13 0 0 0-17.667 14.676C97.656 178.275 91 197.829 91 219.097v24.87c0 5.523 4.478 10 10 10zm18.492-157.264C119.491 72.605 139.09 53 163.18 53c24.114 0 43.732 19.605 43.732 43.703 0 24.086-19.618 43.682-43.732 43.682-24.09 0-43.688-19.596-43.688-43.682zM111 219.097c0-34.569 21.058-58.712 51.209-58.712s51.209 24.144 51.209 58.712v14.87H111v-14.87z"/><path d="M437.11 65.32L355.182 2.084A10.001 10.001 0 0 0 349.072 0H49c-5.522 0-10 4.477-10 10v460c0 5.523 4.478 10 10 10h382c5.522 0 10-4.477 10-10V73.236a10 10 0 0 0-3.89-7.916zM421 460H59V20h286.662L421 78.15V460z"/><path d="M384.533 270.806H98.887c-5.522 0-10 4.477-10 10s4.478 10 10 10h285.645c5.523 0 10-4.477 10.001-10 0-5.523-4.478-10-10-10zM384.533 315.322H98.887c-5.522 0-10 4.477-10 10s4.478 10 10 10h285.645c5.523 0 10-4.477 10.001-10 0-5.523-4.478-10-10-10zM260 164.226h124.532c5.523 0 10-4.477 10-10s-4.478-10-10-10H260c-5.523 0-10 4.477-10 10s4.477 10 10 10zM250 106c0 5.523 4.477 10 10 10h124.532c5.523 0 10-4.477 10-10s-4.478-10-10-10H260c-5.523 0-10 4.477-10 10zM260 208.742h124.532c5.523 0 10-4.477 10-10s-4.478-10-10-10H260c-5.523 0-10 4.477-10 10s4.477 10 10 10zM260 250h124.532c5.523 0 10-4.477 10-10s-4.478-10-10-10H260c-5.523 0-10 4.477-10 10s4.477 10 10 10zM384.533 365H98.887c-5.522 0-10 4.477-10 10s4.478 10 10 10h285.645c5.523 0 10.001-4.477 10.001-10s-4.478-10-10-10zM384.533 415.483H98.887c-5.522 0-10 4.477-10 10s4.478 10 10 10h285.645c5.523 0 10-4.477 10.001-10 0-5.523-4.478-10-10-10z"/>
</symbol>

</svg>
